<svg width="105" height="110" viewBox="0 0 105 110" fill="none" xmlns="http://www.w3.org/2000/svg">
<path fill-rule="evenodd" clip-rule="evenodd" d="M44.793 0.379603C15.1893 5.09986 -4.49475 32.0122 0.886047 60.4105C3.83722 75.9842 14.1028 89.8696 27.5953 96.5371C33.5245 99.4673 38.4355 100.68 48.3397 101.657C55.7327 102.387 56.9947 102.711 62.8045 105.357C72.2766 109.673 73.5565 109.999 80.9788 110C87.1461 110.001 87.9849 109.848 91.4774 108.093C97.8873 104.873 104.27 97.1187 103.076 94.0038C102.734 93.1123 102.208 93.3602 99.8751 95.5133C95.7692 99.3024 93.4436 100.292 87.8617 100.623C81.8662 100.979 79.0816 100.32 71.3293 96.7122C68.0346 95.179 63.9497 93.3998 62.2523 92.7582C58.8313 91.4653 50.3059 83.551 48.1393 79.6564C46.9034 77.4356 46.9117 77.4388 50.3238 80.5C57.5309 86.9649 69.4627 92.1159 76.2364 91.6865C79.3165 91.4915 79.4167 91.4187 80.9788 88.2719C81.9874 86.2396 82.9271 85.1276 83.5323 85.249C84.8065 85.5053 86.9125 77.3768 86.0098 75.6871C85.6759 75.0627 85.1812 74.5514 84.9105 74.5514C84.6405 74.5514 84.6616 72.2488 84.9578 69.4349C85.4704 64.569 85.4142 64.1778 83.8093 61.4362C81.6855 57.8081 80.0519 56.6571 77.0267 56.6571C75.0216 56.6571 74.6998 56.838 75.0369 57.7755C75.3567 58.667 75.1173 58.6019 73.8585 57.456C72.0398 55.8001 69.9919 55.5988 68.8607 56.9639C68.2217 57.734 68.3749 58.2651 69.6855 59.8244C70.5709 60.8776 71.4806 62.584 71.7072 63.6174C72.1304 65.5474 76.7177 70.9726 78.4254 71.5631C78.952 71.7452 78.3494 71.9171 77.0861 71.9446C75.042 71.9893 74.6622 72.2769 73.6376 74.5514C73.0043 75.9574 72.1706 77.1058 71.7851 77.1033C71.3995 77.1007 70.366 76.0341 69.4882 74.7329C67.1358 71.2461 60.9666 64.7882 58.0627 62.7738C56.6391 61.7864 55.6669 60.6533 55.845 60.1893C56.2561 59.117 51.469 55.2115 46.3736 52.4622C44.1648 51.2703 42.731 50.2887 43.1875 50.281C44.4591 50.2586 47.7518 52.0704 51.4269 54.814C53.2552 56.1791 54.9813 57.2962 55.2635 57.2962C55.545 57.2962 56.1399 56.7121 56.5849 55.9982C57.2839 54.8779 57.8157 54.7565 60.4789 55.1099C62.3819 55.363 64.094 55.2358 64.9481 54.7782C66.1815 54.1174 66.2862 53.6931 65.9127 50.8734C65.5508 48.1401 65.6433 47.71 66.5964 47.71C68.8103 47.71 72.1879 49.8841 73.6995 52.282C74.9335 54.2382 75.6389 54.7399 77.1569 54.7399C80.0532 54.7399 81.7289 52.6891 81.4927 49.4323L81.298 46.7514L77.787 46.6414C74.0015 46.5226 68.4802 45.8822 66.9392 45.3831C66.1923 45.1415 66.3136 44.8271 67.4984 43.9317C68.8818 42.8875 68.936 42.651 68.1329 41.1792C67.6491 40.2941 66.5741 38.3097 65.7429 36.7695C63.1365 31.9387 62.8026 31.7329 57.5635 31.7329C53.4441 31.7329 52.2983 32.0154 48.3557 34.0036C42.9379 36.7344 38.2082 40.891 38.2082 42.9201C38.2082 45.0054 39.9286 48.806 41.2341 49.6055C42.108 50.1398 41.8258 50.203 39.9637 49.8886C37.6356 49.4962 37.5698 49.5384 37.5698 51.4192C37.5698 52.852 36.8976 53.9902 34.9813 55.8046C33.5571 57.1524 31.4798 60.1075 30.3646 62.3718C28.4437 66.2715 28.3365 66.8786 28.325 73.8753C28.3186 77.9379 28.5344 82.26 28.8044 83.4807L29.296 85.6995L26.6914 83.1611C20.0345 76.6725 16.4597 68.3319 14.8982 55.6461C14.1858 49.8579 16.9257 34.5775 18.8057 33.8553C19.2589 33.6815 22.4207 35.2907 25.8322 37.4329C31.6828 41.1057 32.1016 41.2661 33.2066 40.2653C34.318 39.2581 34.378 39.3016 34.378 41.1134C34.378 42.164 34.5733 43.2192 34.8121 43.4582C35.0508 43.6972 36.8466 42.2094 38.8019 40.1516C44.8306 33.8074 49.6203 31.4895 58.7681 30.488C65.3126 29.7716 71.4033 27.2747 71.4033 25.3076C71.4033 24.025 71.0669 23.8965 64.9698 22.8446C62.9341 22.4937 59.9695 21.3351 58.0467 20.1381C55.3848 18.4816 53.8265 17.9908 50.5676 17.7831C40.3978 17.135 33.7601 23.5706 33.746 34.0937L33.7396 38.6906L26.212 33.5831C21.3074 30.256 18.3231 28.6142 17.6477 28.8737C17.0776 29.0929 15.8296 30.4011 14.8746 31.7809C12.0096 35.9202 8.83883 34.5654 10.962 30.1084C12.4233 27.0408 14.8203 25.5907 16.8791 26.5295C19.4836 27.7176 20.0364 27.4358 22.5618 23.6281C29.2481 13.5466 40.3365 7.44785 51.9803 7.44785C58.6634 7.44785 62.7758 8.39944 68.7081 11.3181C79.0695 16.4161 87.194 27.3974 89.584 39.5349C90.8735 46.081 90.8231 56.1292 89.4704 62.2759C88.3137 67.5305 88.2383 69.3052 88.9686 74.0171C89.5438 77.7245 88.4203 82.7016 86.3028 85.8255C84.7669 88.091 84.6922 89.8894 86.1336 89.8894C87.4934 89.8894 91.7557 86.0114 94.7669 82.0338C109.058 63.1566 108.312 36.7926 92.9584 18.1755C87.3063 11.322 77.0407 4.85701 67.3727 2.0623C61.1454 0.262012 50.5038 -0.531088 44.793 0.379603ZM77.787 33.932C77.787 35.1418 77.4997 36.3088 77.1486 36.5261C76.1981 37.1147 76.3768 39.5655 77.4863 41.1517C78.0953 42.0215 78.3092 43.1572 78.0557 44.1695C77.5667 46.12 78.4356 46.2689 80.0276 44.5075C81.0107 43.4198 81.0829 42.8773 80.4975 40.967C80.0538 39.5202 80.013 37.9883 80.3839 36.6948C80.8128 35.1955 80.7139 34.2995 79.9977 33.2054C78.6252 31.1079 77.787 31.3834 77.787 33.932ZM81.4442 72.3811C81.2323 72.5933 80.6813 72.6163 80.2211 72.4316C79.7117 72.2277 79.863 72.0763 80.6067 72.0456C81.2795 72.0181 81.6561 72.1689 81.4442 72.3811Z" fill="#F4E3CE"/>
</svg>
