<svg width="164" height="172" viewBox="0 0 164 172" fill="none" xmlns="http://www.w3.org/2000/svg">
<path fill-rule="evenodd" clip-rule="evenodd" d="M69.961 0.59223C23.7238 7.95644 -7.02024 49.9432 1.3839 94.2482C5.99326 118.545 22.0268 140.208 43.1005 150.61C52.3611 155.182 60.0314 157.073 75.5006 158.599C87.0475 159.737 89.0186 160.242 98.0928 164.371C112.887 171.104 114.886 171.613 126.479 171.614C136.111 171.615 137.421 171.377 142.876 168.639C152.888 163.615 162.856 151.518 160.992 146.658C160.457 145.267 159.637 145.654 155.993 149.013C149.579 154.925 145.947 156.468 137.229 156.986C127.865 157.541 123.516 156.513 111.407 150.884C106.262 148.492 99.8815 145.716 97.2304 144.715C91.8872 142.698 78.5715 130.35 75.1876 124.274C73.2573 120.81 73.2702 120.815 78.5995 125.59C89.8562 135.677 108.492 143.713 119.072 143.043C123.883 142.739 124.039 142.625 126.479 137.716C128.054 134.545 129.522 132.81 130.467 133C132.457 133.399 135.746 120.718 134.337 118.082C133.815 117.108 133.042 116.31 132.62 116.31C132.198 116.31 132.231 112.718 132.693 108.328C133.494 100.736 133.406 100.126 130.9 95.8484C127.583 90.1882 125.031 88.3925 120.306 88.3925C117.174 88.3925 116.672 88.6747 117.198 90.1373C117.698 91.5282 117.324 91.4265 115.358 89.6388C112.517 87.0554 109.319 86.7414 107.552 88.8711C106.554 90.0725 106.793 90.9011 108.84 93.3339C110.223 94.977 111.644 97.6391 111.998 99.2514C112.659 102.262 119.824 110.726 122.491 111.648C123.313 111.932 122.372 112.2 120.399 112.243C117.206 112.313 116.613 112.761 115.013 116.31C114.024 118.503 112.722 120.295 112.119 120.291C111.517 120.287 109.903 118.623 108.532 116.593C104.858 111.153 95.2223 101.078 90.6867 97.9353C88.4633 96.3948 86.9448 94.627 87.223 93.9032C87.8651 92.2301 80.3882 86.1372 72.4297 81.8478C68.9799 79.9883 66.7406 78.4569 67.4534 78.4449C69.4396 78.41 74.5824 81.2367 80.3224 85.517C83.1779 87.6467 85.8739 89.3895 86.3146 89.3895C86.7543 89.3895 87.6836 88.4782 88.3785 87.3645C89.4703 85.6167 90.3008 85.4273 94.4605 85.9786C97.4328 86.3735 100.107 86.175 101.441 85.4612C103.367 84.4302 103.531 83.7682 102.947 79.3692C102.382 75.1048 102.527 74.4338 104.015 74.4338C107.473 74.4338 112.748 77.8258 115.109 81.5667C117.037 84.6187 118.138 85.4013 120.509 85.4013C125.033 85.4013 127.65 82.2018 127.281 77.1208L126.977 72.9382L121.494 72.7667C115.581 72.5813 106.958 71.5822 104.551 70.8035C103.384 70.4266 103.574 69.9361 105.424 68.5392C107.585 66.91 107.669 66.5411 106.415 64.2449C105.659 62.864 103.98 59.7682 102.682 57.3653C98.6113 49.8286 98.0898 49.5075 89.907 49.5075C83.473 49.5075 81.6833 49.9482 75.5256 53.05C67.0636 57.3104 59.6764 63.7953 59.6764 66.9609C59.6764 70.2143 62.3635 76.1437 64.4025 77.391C65.7674 78.2246 65.3267 78.3233 62.4183 77.8327C58.7821 77.2205 58.6794 77.2863 58.6794 80.2207C58.6794 82.4561 57.6295 84.2318 54.6364 87.0624C52.4119 89.1652 49.1675 93.7756 47.4257 97.3081C44.4256 103.392 44.2581 104.339 44.2401 115.255C44.2301 121.593 44.5671 128.336 44.9889 130.241L45.7566 133.702L41.6887 129.742C31.2914 119.619 25.7079 106.607 23.2692 86.8152C22.1564 77.7849 26.4358 53.9454 29.3721 52.8187C30.08 52.5475 35.0184 55.0581 40.3466 58.4002C49.4846 64.1303 50.1387 64.3805 51.8646 62.8191C53.6004 61.2478 53.6941 61.3156 53.6941 64.1422C53.6941 65.7814 53.9992 67.4275 54.3721 67.8004C54.745 68.1733 57.5497 65.8522 60.6037 62.6417C70.0199 52.7439 77.5007 49.1276 91.7885 47.5653C102.01 46.4476 111.523 42.5521 111.523 39.4832C111.523 37.4821 110.998 37.2817 101.475 35.6405C98.2952 35.0932 93.6649 33.2855 90.6618 31.418C86.5041 28.8337 84.0703 28.0679 78.9803 27.7439C63.0963 26.7329 52.729 36.7732 52.7071 53.1906L52.6971 60.3624L40.9399 52.394C33.2795 47.2033 28.6183 44.6419 27.5634 45.0467C26.6731 45.3887 24.7239 47.4297 23.2323 49.5823C18.7575 56.0402 13.8051 53.9264 17.1213 46.973C19.4036 42.1872 23.1475 39.9249 26.363 41.3895C30.431 43.2431 31.2944 42.8034 35.2387 36.8629C45.6819 21.1345 63.0006 11.6196 81.1868 11.6196C91.6249 11.6196 98.0479 13.1042 107.314 17.6577C123.497 25.6112 136.186 42.7435 139.919 61.6795C141.933 71.8923 141.854 87.5689 139.742 97.1586C137.935 105.356 137.817 108.125 138.958 115.476C139.856 121.26 138.101 129.025 134.794 133.899C132.395 137.433 132.279 140.239 134.53 140.239C136.654 140.239 143.311 134.189 148.014 127.983C170.335 98.5325 169.17 57.4012 145.189 28.3561C136.362 17.6637 120.328 7.57757 105.228 3.21746C95.5015 0.408773 78.8806 -0.828567 69.961 0.59223ZM121.494 52.9384C121.494 54.8258 121.045 56.6464 120.497 56.9854C119.012 57.9037 119.291 61.7274 121.024 64.202C121.975 65.559 122.309 67.3308 121.913 68.9101C121.15 71.9531 122.507 72.1854 124.993 69.4376C126.529 67.7406 126.641 66.8941 125.727 63.9139C125.034 61.6566 124.97 59.2667 125.55 57.2486C126.22 54.9095 126.065 53.5117 124.946 51.8047C122.803 48.5324 121.494 48.9621 121.494 52.9384ZM127.206 112.924C126.875 113.255 126.014 113.291 125.295 113.003C124.5 112.685 124.736 112.448 125.898 112.4C126.948 112.358 127.537 112.593 127.206 112.924Z" fill="black"/>
</svg>
