<svg width="1041" height="348" viewBox="0 0 1041 348" fill="none" xmlns="http://www.w3.org/2000/svg">
<g filter="url(#filter0_d_13_474)">
<path fill-rule="evenodd" clip-rule="evenodd" d="M49.088 4.78549C18.7039 15.6328 1.48944 46.85 4.29784 86.0159C7.94984 136.939 39.7723 168.131 80.3121 160.518C90.1829 158.662 93.7917 159.911 101.042 167.687C121.05 189.15 154.322 196.911 176.692 185.328C192.187 177.307 190.265 171.657 173.036 174.571C161.399 176.538 155.385 175.159 140.669 167.138C130.726 161.72 119.951 154.363 116.724 150.793C111.284 144.772 111.367 143.555 117.896 134.177C135.618 108.703 138.43 70.2774 124.713 41.0311C114.957 20.2389 107.617 12.8316 89.0725 5.07066C73.0766 -1.62183 67.1497 -1.66154 49.088 4.78549ZM686.457 15.2357C662.307 26.1841 645.132 57.0584 645.258 89.3008C645.355 114.493 654.188 134.795 671.777 150.259C683.238 160.334 687.766 161.958 704.375 161.958C714.985 161.958 728.911 159.749 735.329 157.049C746.952 152.154 746.991 152.042 747.467 124.731C747.752 108.252 749.735 95.5312 752.442 92.8203C760.63 84.6225 757.161 82.5433 735.307 82.5433C712.407 82.5433 710.771 83.8067 719.199 94.9645C725.609 103.455 726.283 137.062 720.165 143.187C705.543 157.828 679.932 138.321 675.574 109.223C672.228 86.8678 675.848 55.1128 682.993 44.1968C695.214 25.5163 717.692 24.123 732.459 41.1249C743.714 54.0876 746.656 52.2177 745.419 32.9091C744.432 17.5243 743.393 15.6978 735.307 15.1274C730.35 14.7773 719.805 13.5392 711.874 12.3732C702.958 11.0629 693.257 12.1566 686.457 15.2357ZM796.537 20.6901C777.83 30.7144 764.126 59.0402 764.227 87.467C764.483 159.276 831.178 185.349 861.645 125.55C877.728 93.9863 865.51 37.3491 839.153 21.2568C824.307 12.1963 812.677 12.0411 796.537 20.6901ZM86.5273 24.9316C95.7348 34.1509 99.2643 43.4099 102.303 66.2994C104.672 84.1208 99.7437 121.146 94.2747 126.622C92.7245 128.174 85.1069 126.2 77.3414 122.236C63.4725 115.154 50.3318 112.782 50.3318 117.356C50.3318 118.634 56.4172 124.969 63.851 131.434C78.989 144.595 77.7813 150.807 61.3995 144.014C44.4482 136.982 34.2276 112.288 34.462 78.9336C34.6567 51.3839 38.2185 40.19 51.4097 25.6896C60.6893 15.4884 76.7502 15.1419 86.5273 24.9316ZM146.059 27.4945C149.761 34.6021 151.236 50.5572 151.254 83.684C151.276 131.513 153.457 140.949 167.019 151.952C177.027 160.067 202.786 160.2 214.985 152.197C230.379 142.094 234.194 127.171 234.194 77.0059C234.194 51.9975 235.874 28.3897 237.925 24.5489C241.31 18.2174 240.384 17.5676 228.011 17.564L214.365 17.5568L215.544 70.5264C216.911 132.051 214.578 140.299 195.813 140.299C175.61 140.299 172.301 130.773 173.66 76.5475C174.298 51.0554 176.187 27.3573 177.856 23.8847C180.553 18.2643 178.689 17.5676 160.887 17.5676H140.889L146.059 27.4945ZM252.219 20.9644C252.219 22.8343 253.842 25.3647 255.824 26.592C257.991 27.9313 259.43 52.4271 259.43 87.958C259.43 123.489 257.991 147.985 255.824 149.324C247.327 154.583 253.506 158.348 270.634 158.348H289.053L285.956 148.421C282.016 135.78 281.897 36.4756 285.808 25.6896C288.62 17.9467 287.903 17.5676 270.486 17.5676C260.439 17.5676 252.219 19.0946 252.219 20.9644ZM302.691 20.4555C302.691 22.0437 304.393 25.0471 306.473 27.1299C310.24 30.9021 310.085 139.747 306.296 151.129C304.908 155.294 308.142 156.803 320.291 157.677C334.463 158.695 335.768 158.139 332.985 152.262C331.283 148.66 329.344 127.265 328.684 104.714L327.476 63.7184L348.026 86.6657C370.94 112.255 378.399 126.73 378.399 145.599C378.399 157.576 379.109 158.348 390.116 158.348L401.832 158.352V87.9616V17.5713H390.891L379.945 17.5676L381.175 54.5677C382.368 90.5714 382.224 91.362 375.893 83.9764C355.906 60.6573 338.991 36.2048 336.824 27.4945C334.6 18.5459 332.794 17.5676 318.525 17.5676C309.815 17.5676 302.691 18.8672 302.691 20.4555ZM448.403 21.1377C437.379 25.4947 422.475 44.7275 418.214 60.0942C408.747 94.2209 417.399 129.99 439.646 148.735C449.939 157.41 454.024 158.543 471.599 157.612L491.748 156.543L496.658 139.09C499.355 129.492 500.602 120.677 499.43 119.5C498.255 118.323 492.628 121.836 486.928 127.304C463.138 150.129 441.308 129.391 441.716 84.3482C442.026 50.3767 449.553 35.6164 466.573 35.6164C476.152 35.6164 480.576 38.0422 486.701 46.6551C496.492 60.4227 499.088 58.0619 497.772 36.5983C496.813 20.9933 497.192 20.145 502.985 24.9604C506.421 27.8158 516.299 45.3917 524.933 64.018C538.615 93.5386 540.63 101.043 540.63 122.489C540.63 136.022 539.008 148.097 537.025 149.324C528.289 154.731 534.945 158.348 553.634 158.348C571.591 158.348 573.523 157.641 570.938 152.031C569.341 148.559 567.448 135.156 566.735 122.251C565.502 99.9676 566.396 96.8813 584.468 60.8848C594.934 40.0384 604.087 21.7622 604.808 20.275C605.533 18.7841 599.39 17.5676 591.159 17.5676C578.084 17.5676 576.472 18.434 578.376 24.4442C579.691 28.6027 575.884 40.8109 568.75 55.2932L556.947 79.262L545.342 53.7086C538.961 39.6558 534.627 25.8376 535.712 23.0003C537.356 18.7155 530.799 17.8745 496.799 18.008C474.31 18.0983 452.531 19.5061 448.403 21.1377ZM879.386 24.5489C884.264 33.6744 884.379 146.313 879.512 149.324C877.53 150.551 875.907 153.082 875.907 154.951C875.907 158.955 943.226 159.623 945.584 155.641C946.463 154.15 948.255 143.999 949.564 133.08L951.94 113.226L940.612 126.763C932.302 136.693 926.495 140.299 918.819 140.299H908.353V84.5612C908.353 51.2972 909.806 27.924 911.959 26.592C920.661 21.2063 914.071 17.5676 895.609 17.5676C876.996 17.5676 875.904 18.0369 879.386 24.5489ZM958.699 24.5489C963.577 33.6744 963.692 146.313 958.825 149.324C950.083 154.735 956.752 158.348 975.47 158.348C994.877 158.348 995.605 158.013 992.97 150.226C991.459 145.761 989.509 131.954 988.636 119.543L987.05 96.9824H998.143C1005.33 96.9824 1010.82 99.5236 1013.74 104.202C1021.42 116.511 1023.72 112.353 1023.72 86.1531C1023.72 62.0146 1019.45 53.1526 1014.83 67.7144C1012.83 74.0062 1003.18 78.7639 992.173 78.883C989.015 78.9191 987.666 71.7646 987.666 54.9936V31.0573L1002.97 33.1113C1013.86 34.5732 1020.57 38.0494 1026.24 45.1787C1036.43 57.9645 1038.73 55.3835 1035.86 34.4L1033.55 17.5676H994.26C956.529 17.5676 955.116 17.8456 958.699 24.5489ZM835.032 43.7384C843.627 60.0545 843.641 112.219 835.061 128.517C828.215 141.516 813.928 147.212 805.578 140.274C796.493 132.726 792.146 110.342 793.497 78.0961C794.961 43.1284 801.043 32.0067 818.69 32.0067C826.488 32.0067 830.295 34.7393 835.032 43.7384ZM319.343 209.008C278.342 221.302 263.839 287.773 294.709 321.928C321.899 352.008 374.13 343.197 392.383 305.446C418.592 251.235 374.166 192.572 319.343 209.008ZM700.233 212.166C666.143 228.103 653.402 278.138 675.188 310.51C692.893 336.815 719.596 344.717 758.045 335.028L773.161 331.22L773.193 308.857C773.208 296.559 774.599 283.654 776.279 280.178C779.012 274.539 777.119 273.861 758.686 273.861C742.629 273.861 738.836 274.864 741.659 278.373C747.81 286.018 750.211 304.601 746.36 314.745C743.264 322.903 740.545 324.397 728.814 324.397C698.596 324.397 682.578 283.253 697.886 244.95C708.243 219.036 730.245 215.505 753.019 236.102C760.788 243.134 767.973 247.545 768.983 245.91C769.992 244.275 769.192 235.305 767.205 225.974C764.206 211.906 762.255 209.065 755.759 209.333C751.451 209.509 740.625 208.618 731.702 207.347C719.462 205.604 711.737 206.788 700.233 212.166ZM184.623 213.91C190.132 218.097 190.932 225.486 190.932 272.171C190.932 316.853 189.951 326.718 184.965 332.234C179.219 338.594 180.535 338.836 220.876 338.836H262.757L268.291 320.174C271.334 309.908 272.996 300.681 271.983 299.663C270.966 298.649 264.888 302.861 258.474 309.027C251.819 315.423 241.007 321.304 233.292 322.719L219.773 325.202V272.669C219.773 241.542 221.24 219.23 223.378 217.909C232.604 212.199 224.91 208.896 202.649 209C181.638 209.098 179.176 209.769 184.623 213.91ZM410.845 212.282C410.845 214.152 412.467 216.682 414.45 217.909C416.516 219.187 418.055 237.839 418.055 261.555C418.055 289.184 419.761 307.06 423.178 315.25C436.413 346.958 493.904 348.315 509.925 317.297C513.894 309.615 515.394 295.194 515.394 264.778C515.394 241.716 517.074 219.707 519.125 215.866C522.593 209.379 521.53 208.885 504.146 208.885C486.246 208.885 485.695 209.17 491.402 215.487C496.24 220.837 497.368 230.092 497.368 264.381C497.368 304.475 496.907 307.139 488.518 315.535C483.651 320.408 477.241 324.397 474.27 324.397C462.997 324.397 450.721 315.781 447.077 305.312C441.366 288.906 442.329 230.673 448.508 218.812L453.678 208.885H432.263C420.482 208.885 410.845 210.412 410.845 212.282ZM537.025 212.282C537.025 214.152 538.647 216.682 540.63 217.909C542.771 219.234 544.235 241.939 544.235 273.861C544.235 305.782 542.771 328.487 540.63 329.812C532.215 335.021 538.236 338.836 554.863 338.836H572.701L569.136 328.592C567.174 322.957 566.039 304.016 566.619 286.498L567.668 254.646L595.345 281.842C616.064 302.197 624.027 312.781 627.03 323.935C630.347 336.273 632.561 338.836 639.912 338.836H648.784V281.885C648.784 236.178 649.891 223.346 654.397 216.909C659.974 208.932 659.902 208.885 641.653 208.885C624.619 208.885 623.562 209.39 627.027 215.866C629.078 219.707 630.758 235.987 630.758 252.043V281.235L605.605 255.393C591.769 241.178 578.394 224.898 575.884 219.216C571.782 209.935 569.572 208.885 554.171 208.885C544.74 208.885 537.025 210.412 537.025 212.282ZM792.268 213.217C797.734 218.689 798.4 326.466 792.989 329.812C782.459 336.327 793.234 338.836 831.773 338.836H874.162L880.237 321.917C887.422 301.912 885.248 295.479 875.017 306.475C861.945 320.524 828.006 330.234 824.833 320.834C824.174 318.878 824.188 308.319 824.869 297.371C826.048 278.362 826.549 277.47 836.027 277.47C841.482 277.47 848.887 280.719 852.474 284.69C856.061 288.661 860.369 291.909 862.045 291.909C865.384 291.909 866.336 251.04 863.069 247.773C861.959 246.657 857.168 249.635 852.42 254.39C847.672 259.144 839.823 263.031 834.975 263.031C827.083 263.031 825.998 261.241 824.606 245.885C823.752 236.456 823.683 227.518 824.455 226.031C827.826 219.534 850.57 223.707 861.364 232.796C867.547 238.008 873.247 241.633 874.025 240.849C874.808 240.07 874.523 232.558 873.398 224.158L871.354 208.885H829.646C797.211 208.885 788.905 209.849 792.268 213.217ZM352.741 225.602C379.069 244.066 376.528 312.673 349.161 322.17C323.713 330.999 306.296 309.428 306.296 269.078C306.296 250.924 307.951 243.849 314.004 236.146C326.618 220.086 339.773 216.505 352.741 225.602Z" fill="#2F5236"/>
</g>
<defs>
<filter id="filter0_d_13_474" x="0" y="0" width="1041" height="348" filterUnits="userSpaceOnUse" color-interpolation-filters="sRGB">
<feFlood flood-opacity="0" result="BackgroundImageFix"/>
<feColorMatrix in="SourceAlpha" type="matrix" values="0 0 0 0 0 0 0 0 0 0 0 0 0 0 0 0 0 0 127 0" result="hardAlpha"/>
<feOffset dy="4"/>
<feGaussianBlur stdDeviation="2"/>
<feComposite in2="hardAlpha" operator="out"/>
<feColorMatrix type="matrix" values="0 0 0 0 0 0 0 0 0 0 0 0 0 0 0 0 0 0 0.25 0"/>
<feBlend mode="normal" in2="BackgroundImageFix" result="effect1_dropShadow_13_474"/>
<feBlend mode="normal" in="SourceGraphic" in2="effect1_dropShadow_13_474" result="shape"/>
</filter>
</defs>
</svg>
