<svg width="689" height="232" viewBox="0 0 689 232" fill="none" xmlns="http://www.w3.org/2000/svg">
<g filter="url(#filter0_d_40_12)">
<path fill-rule="evenodd" clip-rule="evenodd" d="M33.7242 3.1528C13.6936 10.2993 2.34505 30.8659 4.19647 56.6693C6.60403 90.2185 27.5829 110.768 54.3085 105.753C60.8158 104.53 63.1948 105.353 67.9743 110.476C81.1648 124.617 103.099 129.73 117.846 122.098C128.061 116.814 126.794 113.092 115.436 115.011C107.764 116.307 103.8 115.399 94.0986 110.114C87.5438 106.545 80.4399 101.698 78.3128 99.346C74.7264 95.3792 74.7811 94.5777 79.0852 88.3992C90.7689 71.6163 92.6227 46.3004 83.5795 27.0322C77.1482 13.3339 72.3093 8.45379 60.0838 3.34068C49.5385 -1.06849 45.6313 -1.09465 33.7242 3.1528ZM453.907 10.0377C437.985 17.2507 426.663 37.5915 426.746 58.8335C426.81 75.4309 432.633 88.8059 444.229 98.994C451.784 105.632 454.769 106.702 465.719 106.702C472.713 106.702 481.894 105.246 486.125 103.467C493.787 100.243 493.813 100.169 494.127 82.1755C494.315 71.319 495.622 62.9382 497.407 61.1522C502.804 55.7513 500.518 54.3815 486.111 54.3815C471.014 54.3815 469.935 55.2139 475.492 62.5649C479.717 68.1584 480.162 90.2994 476.129 94.3352C466.489 103.981 449.605 91.1293 446.732 71.9587C444.526 57.2306 446.912 36.3096 451.623 29.1179C459.68 16.8108 474.498 15.8928 484.233 27.0941C491.653 35.6342 493.592 34.4023 492.777 21.6813C492.126 11.5455 491.441 10.3421 486.111 9.96632C482.843 9.73564 475.891 8.91992 470.662 8.15176C464.785 7.28848 458.389 8.00908 453.907 10.0377ZM526.476 13.6311C514.143 20.2354 505.11 38.8971 505.176 57.6253C505.345 104.935 549.313 122.112 569.398 82.7153C580.001 61.9204 571.946 24.6065 554.57 14.0045C544.783 8.03523 537.116 7.93297 526.476 13.6311ZM58.4058 16.4255C64.4758 22.4994 66.8026 28.5995 68.8061 43.6796C70.3676 55.4208 67.1187 79.8139 63.5133 83.4216C62.4913 84.4442 57.4694 83.1434 52.3501 80.5321C43.2071 75.8661 34.5441 74.3036 34.5441 77.3168C34.5441 78.1587 38.5559 82.3324 43.4566 86.5918C53.4362 95.2626 52.64 99.3555 41.8405 94.8798C30.6654 90.247 23.9275 73.9778 24.082 52.0033C24.2104 33.8529 26.5585 26.4781 35.2547 16.9249C41.3723 10.2042 51.9603 9.97584 58.4058 16.4255ZM97.6517 18.114C100.093 22.7967 101.065 33.3083 101.076 55.133C101.091 86.6441 102.529 92.8607 111.47 100.109C118.067 105.456 135.049 105.544 143.091 100.271C153.24 93.6146 155.754 83.7831 155.754 50.7333C155.754 34.2572 156.862 18.7038 158.214 16.1734C160.446 12.0021 159.835 11.574 151.678 11.5716L142.682 11.5669L143.46 46.4645C144.36 86.9984 142.823 92.4326 130.452 92.4326C117.133 92.4326 114.951 86.1565 115.847 50.4313C116.268 33.6365 117.514 18.0236 118.614 15.7358C120.392 12.033 119.163 11.574 107.427 11.574H94.2436L97.6517 18.114ZM167.637 13.8119C167.637 15.0438 168.707 16.7109 170.014 17.5195C171.442 18.4018 172.391 34.5402 172.391 57.9488C172.391 81.3573 171.442 97.4958 170.014 98.3781C164.412 101.843 168.486 104.324 179.777 104.324H191.92L189.878 97.7835C187.281 89.4551 187.202 24.031 189.781 16.9249C191.635 11.8237 191.162 11.574 179.68 11.574C173.056 11.574 167.637 12.58 167.637 13.8119ZM200.911 13.4765C200.911 14.5229 202.033 16.5016 203.404 17.8738C205.887 20.359 205.785 92.0687 203.287 99.5672C202.372 102.312 204.504 103.306 212.514 103.881C221.856 104.552 222.717 104.186 220.882 100.314C219.76 97.9405 218.481 83.8449 218.046 68.9884L217.25 41.9792L230.797 57.0974C245.903 73.9564 250.821 83.493 250.821 95.9238C250.821 103.815 251.289 104.324 258.545 104.324L266.269 104.326V57.9512V11.5764H259.056L251.84 11.574L252.651 35.9505C253.437 59.6706 253.342 60.1914 249.169 55.3256C235.993 39.9625 224.841 23.8526 223.413 18.114C221.947 12.2185 220.756 11.574 211.349 11.574C205.607 11.574 200.911 12.4301 200.911 13.4765ZM296.971 13.926C289.703 16.7965 279.878 29.4675 277.069 39.5915C270.827 62.0749 276.531 85.6405 291.198 97.9904C297.983 103.705 300.676 104.452 312.262 103.838L325.545 103.134L328.782 91.6359C330.56 85.3123 331.383 79.5047 330.61 78.7294C329.835 77.9542 326.125 80.2681 322.368 83.8711C306.684 98.9084 292.294 85.2457 292.562 55.5706C292.766 33.1894 297.729 23.465 308.949 23.465C315.264 23.465 318.18 25.0631 322.218 30.7375C328.673 39.8079 330.384 38.2526 329.517 24.1118C328.885 13.8309 329.134 13.272 332.953 16.4445C335.218 18.3257 341.73 29.9051 347.423 42.1766C356.442 61.6255 357.771 66.5698 357.771 80.6986C357.771 89.6144 356.701 97.5695 355.394 98.3781C349.635 101.941 354.023 104.324 366.343 104.324C378.181 104.324 379.455 103.857 377.751 100.162C376.698 97.8739 375.451 89.0437 374.98 80.5416C374.167 65.861 374.757 63.8277 386.671 40.1123C393.57 26.3783 399.605 14.3374 400.08 13.3576C400.558 12.3754 396.508 11.574 391.082 11.574C382.462 11.574 381.399 12.1448 382.654 16.1044C383.522 18.8441 381.012 26.8872 376.309 36.4285L368.527 52.2197L360.877 35.3845C356.67 26.1262 353.813 17.0224 354.529 15.1532C355.613 12.3303 351.289 11.7761 328.875 11.8641C314.049 11.9236 299.692 12.8511 296.971 13.926ZM581.094 16.1734C584.31 22.1855 584.386 96.3947 581.177 98.3781C579.87 99.1867 578.801 100.854 578.801 102.086C578.801 104.723 623.18 105.163 624.734 102.54C625.314 101.558 626.495 94.8703 627.358 87.6762L628.924 74.5961L621.457 83.5144C615.979 90.0568 612.15 92.4326 607.09 92.4326H600.19V55.7109C600.19 33.7958 601.148 18.397 602.567 17.5195C608.304 13.9712 603.96 11.574 591.789 11.574C579.518 11.574 578.798 11.8832 581.094 16.1734ZM633.381 16.1734C636.596 22.1855 636.672 96.3947 633.464 98.3781C627.7 101.943 632.097 104.324 644.437 104.324C657.231 104.324 657.711 104.102 655.973 98.9726C654.977 96.0308 653.692 86.9342 653.117 78.758L652.071 63.8943H659.384C664.123 63.8943 667.742 65.5685 669.665 68.6507C674.728 76.7603 676.244 74.0206 676.244 56.7597C676.244 40.8567 673.427 35.0182 670.383 44.6119C669.069 48.7571 662.706 51.8915 655.448 51.97C653.366 51.9938 652.477 47.2802 652.477 36.2311V20.4613L662.564 21.8145C669.746 22.7777 674.167 25.0679 677.908 29.7648C684.622 38.1884 686.14 36.4879 684.246 22.6635L682.727 11.574H656.824C631.95 11.574 631.018 11.7571 633.381 16.1734ZM551.854 28.8159C557.52 39.5653 557.529 73.9326 551.873 84.6702C547.36 93.2341 537.941 96.9868 532.437 92.416C526.447 87.4432 523.581 72.696 524.472 51.4516C525.437 28.414 529.447 21.0868 541.08 21.0868C546.221 21.0868 548.731 22.8871 551.854 28.8159ZM211.889 137.699C184.859 145.799 175.297 189.591 195.649 212.094C213.574 231.911 248.007 226.106 260.04 201.235C277.318 165.519 248.03 126.871 211.889 137.699ZM462.988 139.78C440.514 150.28 432.115 183.244 446.477 204.572C458.149 221.902 475.753 227.107 501.1 220.724L511.066 218.215L511.087 203.482C511.096 195.38 512.014 186.878 513.121 184.588C514.923 180.873 513.675 180.426 501.523 180.426C490.938 180.426 488.437 181.087 490.298 183.399C494.353 188.436 495.936 200.678 493.397 207.361C491.356 212.736 489.564 213.721 481.83 213.721C461.909 213.721 451.349 186.614 461.441 161.379C468.269 144.306 482.774 141.98 497.787 155.55C502.909 160.183 507.646 163.089 508.311 162.011C508.976 160.934 508.449 155.024 507.139 148.877C505.162 139.609 503.876 137.737 499.593 137.913C496.753 138.03 489.616 137.442 483.734 136.605C475.665 135.457 470.572 136.237 462.988 139.78ZM123.075 140.929C126.706 143.687 127.234 148.556 127.234 179.313C127.234 208.75 126.588 215.25 123.301 218.884C119.512 223.074 120.38 223.233 146.975 223.233H174.584L178.233 210.938C180.238 204.174 181.334 198.096 180.666 197.425C179.996 196.757 175.989 199.532 171.761 203.594C167.374 207.808 160.246 211.682 155.16 212.615L146.247 214.251V179.641C146.247 159.134 147.215 144.434 148.624 143.564C154.706 139.801 149.634 137.625 134.958 137.694C121.107 137.759 119.484 138.201 123.075 140.929ZM272.211 139.856C272.211 141.088 273.28 142.755 274.587 143.564C275.949 144.406 276.964 156.694 276.964 172.319C276.964 190.521 278.088 202.298 280.341 207.694C289.066 228.584 326.967 229.478 337.529 209.043C340.145 203.982 341.134 194.481 341.134 174.442C341.134 159.248 342.241 144.748 343.594 142.218C345.88 137.944 345.179 137.618 333.719 137.618C321.919 137.618 321.555 137.806 325.317 141.968C328.507 145.492 329.251 151.59 329.251 174.181C329.251 200.595 328.946 202.35 323.416 207.882C320.207 211.093 315.982 213.721 314.023 213.721C306.592 213.721 298.499 208.044 296.096 201.147C292.332 190.338 292.966 151.973 297.04 144.158L300.448 137.618H286.33C278.564 137.618 272.211 138.624 272.211 139.856ZM355.394 139.856C355.394 141.088 356.463 142.755 357.771 143.564C359.182 144.437 360.147 159.395 360.147 180.426C360.147 201.456 359.182 216.415 357.771 217.288C352.223 220.72 356.193 223.233 367.154 223.233H378.913L376.563 216.484C375.27 212.772 374.521 200.293 374.904 188.752L375.596 167.767L393.841 185.684C407.5 199.095 412.75 206.068 414.73 213.416C416.916 221.545 418.376 223.233 423.222 223.233H429.071V185.713C429.071 155.6 429.8 147.145 432.771 142.905C436.448 137.649 436.4 137.618 424.37 137.618C413.14 137.618 412.443 137.951 414.727 142.218C416.08 144.748 417.187 155.474 417.187 166.052V185.284L400.605 168.259C391.484 158.894 382.666 148.168 381.012 144.425C378.307 138.31 376.85 137.618 366.697 137.618C360.48 137.618 355.394 138.624 355.394 139.856ZM523.662 140.472C527.265 144.077 527.705 215.083 524.137 217.288C517.195 221.58 524.299 223.233 549.705 223.233H577.65L581.655 212.087C586.392 198.907 584.958 194.669 578.214 201.913C569.596 211.169 547.222 217.566 545.13 211.373C544.695 210.084 544.705 203.128 545.154 195.915C545.931 183.391 546.262 182.804 552.51 182.804C556.106 182.804 560.987 184.944 563.352 187.56C565.717 190.176 568.557 192.317 569.662 192.317C571.863 192.317 572.49 165.391 570.337 163.239C569.605 162.504 566.447 164.466 563.317 167.598C560.186 170.73 555.012 173.291 551.816 173.291C546.613 173.291 545.898 172.112 544.981 161.995C544.417 155.783 544.372 149.895 544.881 148.915C547.103 144.634 562.097 147.383 569.213 153.371C573.289 156.806 577.047 159.193 577.56 158.677C578.076 158.164 577.888 153.215 577.146 147.68L575.799 137.618H548.303C526.92 137.618 521.444 138.253 523.662 140.472ZM233.906 148.632C251.263 160.796 249.587 205.996 231.546 212.253C214.769 218.07 203.287 203.858 203.287 177.275C203.287 165.315 204.378 160.653 208.369 155.578C216.685 144.998 225.357 142.639 233.906 148.632Z" fill="#F4E3CE"/>
</g>
<defs>
<filter id="filter0_d_40_12" x="0" y="0" width="689" height="232" filterUnits="userSpaceOnUse" color-interpolation-filters="sRGB">
<feFlood flood-opacity="0" result="BackgroundImageFix"/>
<feColorMatrix in="SourceAlpha" type="matrix" values="0 0 0 0 0 0 0 0 0 0 0 0 0 0 0 0 0 0 127 0" result="hardAlpha"/>
<feOffset dy="4"/>
<feGaussianBlur stdDeviation="2"/>
<feComposite in2="hardAlpha" operator="out"/>
<feColorMatrix type="matrix" values="0 0 0 0 0 0 0 0 0 0 0 0 0 0 0 0 0 0 0.25 0"/>
<feBlend mode="normal" in2="BackgroundImageFix" result="effect1_dropShadow_40_12"/>
<feBlend mode="normal" in="SourceGraphic" in2="effect1_dropShadow_40_12" result="shape"/>
</filter>
</defs>
</svg>
